<svg width="338" height="125" viewBox="0 0 338 125" fill="none" xmlns="http://www.w3.org/2000/svg">
<path d="M124.118 62.0588C124.118 96.333 96.333 124.118 62.0588 124.118C27.7847 124.118 0 96.333 0 62.0588C0 27.7847 27.7847 0 62.0588 0C96.333 0 124.118 27.7847 124.118 62.0588Z" fill="#3CB371"/>
<path d="M337.6 91.847C337.6 109.67 323.152 124.118 305.329 124.118C287.507 124.118 273.059 109.67 273.059 91.847C273.059 74.0245 287.507 59.5764 305.329 59.5764C323.152 59.5764 337.6 74.0245 337.6 91.847Z" fill="#1F1C1C"/>
<path d="M132.61 1.24121L203.553 124.118H61.6675L132.61 1.24121Z" fill="#1F1C1C"/>
<path d="M206.035 111.706L170.564 50.2677L241.507 50.2677L206.035 111.706Z" fill="#1F1C1C"/>
<path d="M243.989 62.6794L279.46 124.118L208.518 124.118L243.989 62.6794Z" fill="#1F1C1C"/>
</svg>
